<svg width="20" height="20" viewBox="0 0 20 20" fill="none" xmlns="http://www.w3.org/2000/svg">
<mask id="mask0_5305_8519" style="mask-type:alpha" maskUnits="userSpaceOnUse" x="0" y="1" width="19" height="19">
<path fill-rule="evenodd" clip-rule="evenodd" d="M8.62827 11.1964L10.8986 19.0114C10.9556 19.2067 11.231 19.2212 11.3087 19.0343L18.301 2.25259C18.3925 2.03515 18.2871 1.78714 18.0661 1.69796C17.9581 1.65464 17.8372 1.65634 17.7302 1.70136L0.965069 8.84619C0.775086 8.92773 0.796675 9.19868 0.99702 9.24964L8.62827 11.1964Z" fill="#24262C"/>
</mask>
<g mask="url(#mask0_5305_8519)">
<path d="M-85.7937 90.0488C-99.1271 90.0488 -110.86 85.7822 -120.994 77.2488C-130.594 68.1822 -135.394 54.0488 -135.394 34.8488C-135.394 15.6488 -130.594 1.51549 -120.994 -7.55119C-110.86 -16.6179 -99.1271 -21.1512 -85.7937 -21.1512H128.606C141.94 -21.1512 153.406 -16.6179 163.006 -7.55119C173.14 0.982145 178.206 14.8488 178.206 34.0488C178.206 53.2488 173.14 67.3822 163.006 76.4488C153.406 85.5155 141.94 90.0488 128.606 90.0488H-85.7937Z" fill="#2067DA"/>
</g>
</svg>
