<svg width="80" height="80" viewBox="0 0 80 80" fill="none" xmlns="http://www.w3.org/2000/svg">
<g clip-path="url(#clip0_40000299_21197)">
<rect width="80" height="80" rx="9" fill="#DDE7FF"/>
<rect width="80" height="80" fill="url(#paint0_linear_40000299_21197)"/>
<rect width="80" height="24.4444" transform="translate(0 55.5557)" fill="url(#paint1_linear_40000299_21197)"/>
<g filter="url(#filter0_d_40000299_21197)">
<g clip-path="url(#clip1_40000299_21197)">
<rect x="15.5557" y="8.88867" width="46.6667" height="86.6667" rx="2" fill="white"/>
<rect x="15.5557" y="8.88867" width="46.6667" height="6.04281" fill="url(#paint2_linear_40000299_21197)"/>
<line x1="16.5527" y1="64.3145" x2="62.2058" y2="64.3145" stroke="#6593F8" stroke-linecap="round" stroke-dasharray="0.5 2"/>
<rect opacity="0.7" x="24.4775" y="48.791" width="28.8232" height="3.5353" rx="1.76765" fill="#E7EFFF"/>
<rect opacity="0.7" x="32.0195" y="54.5938" width="13.7392" height="3.5353" rx="1.76765" fill="#E7EFFF"/>
<mask id="mask0_40000299_21197" style="mask-type:alpha" maskUnits="userSpaceOnUse" x="29" y="22" width="20" height="20">
<path fill-rule="evenodd" clip-rule="evenodd" d="M39 22C44.5228 22 49 26.4772 49 32C49 37.5228 44.5228 42 39 42C33.4772 42 29 37.5228 29 32C29 26.4772 33.4772 22 39 22ZM39 36C38.1716 36 37.5 36.6716 37.5 37.5C37.5 38.3284 38.1716 39 39 39C39.8284 39 40.5 38.3284 40.5 37.5C40.5 36.6716 39.8284 36 39 36ZM39.7162 25.0631C37.2522 24.6301 35.0382 26.4881 35.0002 28.9371C35.0002 28.9604 35.0122 28.9837 35.0306 28.9973L35.0622 29.0091H36.9312C36.9589 29.0113 36.9839 28.9911 36.9946 28.9648L37.0002 28.9371L37.0042 28.8531C37.0892 27.6841 38.1652 26.8211 39.3712 27.0321C40.1642 27.1711 40.8292 27.8371 40.9672 28.6291C41.1306 29.5612 40.6553 30.4363 39.8472 30.8129L39.5262 30.9461C38.6674 31.337 38.0776 32.1375 38.0073 33.0699L38.0002 33.2581V34.3371C38.0002 34.4091 38.0469 34.4708 38.1122 34.4926L38.1642 34.5011H39.8352C39.908 34.5011 39.9693 34.4537 39.9909 34.3887L39.9992 34.3371V33.2581L40.0062 33.1781C40.0392 32.9941 40.1802 32.8301 40.4012 32.7471C42.1912 32.0791 43.2792 30.2311 42.9372 28.2831C42.6542 26.6611 41.3382 25.3471 39.7162 25.0631Z" fill="#24262C"/>
</mask>
<g mask="url(#mask0_40000299_21197)">
<path d="M-56.7937 112C-70.1271 112 -81.8604 107.733 -91.9937 99.2C-101.594 90.1333 -106.394 76 -106.394 56.8C-106.394 37.6 -101.594 23.4667 -91.9937 14.4C-81.8604 5.33332 -70.1271 0.799991 -56.7937 0.799991H157.606C170.94 0.799991 182.406 5.33332 192.006 14.4C202.14 22.9333 207.206 36.8 207.206 56C207.206 75.2 202.14 89.3333 192.006 98.4C182.406 107.467 170.94 112 157.606 112H-56.7937Z" fill="#2067DA"/>
</g>
</g>
</g>
<g style="mix-blend-mode:multiply">
<rect width="80" height="15.5556" transform="translate(0 64.4443)" fill="url(#paint3_linear_40000299_21197)"/>
</g>
<path d="M45 82.5556C45 62.9188 60.9188 47 80.5556 47V47V82.5556H45V82.5556Z" fill="#3B7AF1"/>
<path fill-rule="evenodd" clip-rule="evenodd" d="M62.1189 64.1806V72.0094H59.6482C58.7379 72.0094 58 71.2715 58 70.3613V65.8288C58 64.9185 58.7379 64.1806 59.6482 64.1806H62.1189ZM66.484 58C67.0425 58 67.5018 58.416 67.557 58.9493L67.5626 59.0574V63.2357H73.1123C73.8078 63.1705 74.4144 63.675 74.4763 64.3431L74.4815 64.4559V66.0418C74.4815 67.6394 74.1706 69.2223 73.5654 70.7056C73.0647 71.9327 71.8669 72.8914 70.5412 72.8308L70.3816 72.8186L62.9444 72.0268V64.1307L63.2184 63.6938C63.7623 62.8014 64.9661 60.6941 65.4359 58.8085C65.5541 58.3343 65.986 58 66.484 58Z" fill="#FEFEFF"/>
</g>
<defs>
<filter id="filter0_d_40000299_21197" x="13.5557" y="8.88867" width="50.667" height="92.667" filterUnits="userSpaceOnUse" color-interpolation-filters="sRGB">
<feFlood flood-opacity="0" result="BackgroundImageFix"/>
<feColorMatrix in="SourceAlpha" type="matrix" values="0 0 0 0 0 0 0 0 0 0 0 0 0 0 0 0 0 0 127 0" result="hardAlpha"/>
<feOffset dy="4"/>
<feGaussianBlur stdDeviation="1"/>
<feComposite in2="hardAlpha" operator="out"/>
<feColorMatrix type="matrix" values="0 0 0 0 0.470588 0 0 0 0 0.635294 0 0 0 0 1 0 0 0 0.56 0"/>
<feBlend mode="normal" in2="BackgroundImageFix" result="effect1_dropShadow_40000299_21197"/>
<feBlend mode="normal" in="SourceGraphic" in2="effect1_dropShadow_40000299_21197" result="shape"/>
</filter>
<linearGradient id="paint0_linear_40000299_21197" x1="40" y1="0" x2="40" y2="79.9424" gradientUnits="userSpaceOnUse">
<stop stop-color="#EFF4FF"/>
<stop offset="1" stop-color="#CADAFC"/>
</linearGradient>
<linearGradient id="paint1_linear_40000299_21197" x1="0.827361" y1="11.2536" x2="67.301" y2="36.3977" gradientUnits="userSpaceOnUse">
<stop stop-color="#3777F0"/>
<stop offset="1" stop-color="#7AA4FF"/>
</linearGradient>
<linearGradient id="paint2_linear_40000299_21197" x1="16.0383" y1="11.6706" x2="40.7083" y2="33.6905" gradientUnits="userSpaceOnUse">
<stop stop-color="#3777F0"/>
<stop offset="1" stop-color="#7AA4FF"/>
</linearGradient>
<linearGradient id="paint3_linear_40000299_21197" x1="40" y1="0" x2="40" y2="15.5556" gradientUnits="userSpaceOnUse">
<stop stop-color="#E1EAFE" stop-opacity="0"/>
<stop offset="1" stop-color="#B2CAFF"/>
</linearGradient>
<clipPath id="clip0_40000299_21197">
<rect width="80" height="80" rx="9" fill="white"/>
</clipPath>
<clipPath id="clip1_40000299_21197">
<rect x="15.5557" y="8.88867" width="46.6667" height="86.6667" rx="2" fill="white"/>
</clipPath>
</defs>
</svg>
