<svg width="80" height="80" viewBox="0 0 80 80" fill="none" xmlns="http://www.w3.org/2000/svg">
<g clip-path="url(#clip0_40000299_21248)">
<mask id="mask0_40000299_21248" style="mask-type:luminance" maskUnits="userSpaceOnUse" x="0" y="0" width="80" height="80">
<path d="M71 0H9C4.02944 0 0 4.02944 0 9V71C0 75.9706 4.02944 80 9 80H71C75.9706 80 80 75.9706 80 71V9C80 4.02944 75.9706 0 71 0Z" fill="white"/>
</mask>
<g mask="url(#mask0_40000299_21248)">
<path d="M71 0H9C4.02944 0 0 4.02944 0 9V71C0 75.9706 4.02944 80 9 80H71C75.9706 80 80 75.9706 80 71V9C80 4.02944 75.9706 0 71 0Z" fill="#DDE7FF"/>
<path d="M80 0H0V80H80V0Z" fill="url(#paint0_linear_40000299_21248)"/>
<path d="M80 55.5557H0V80.0001H80V55.5557Z" fill="url(#paint1_linear_40000299_21248)"/>
<g filter="url(#filter0_d_40000299_21248)">
<mask id="mask1_40000299_21248" style="mask-type:luminance" maskUnits="userSpaceOnUse" x="15" y="8" width="48" height="88">
<path d="M60.2224 8.88867H17.5557C16.4511 8.88867 15.5557 9.7841 15.5557 10.8887V93.5554C15.5557 94.6599 16.4511 95.5554 17.5557 95.5554H60.2224C61.3269 95.5554 62.2224 94.6599 62.2224 93.5554V10.8887C62.2224 9.7841 61.3269 8.88867 60.2224 8.88867Z" fill="white"/>
</mask>
<g mask="url(#mask1_40000299_21248)">
<path d="M60.2224 8.88867H17.5557C16.4511 8.88867 15.5557 9.7841 15.5557 10.8887V93.5554C15.5557 94.6599 16.4511 95.5554 17.5557 95.5554H60.2224C61.3269 95.5554 62.2224 94.6599 62.2224 93.5554V10.8887C62.2224 9.7841 61.3269 8.88867 60.2224 8.88867Z" fill="white"/>
<path d="M62.2224 8.88867H15.5557V14.9315H62.2224V8.88867Z" fill="url(#paint2_linear_40000299_21248)"/>
<path d="M16.5527 64.3145H62.2058" stroke="#6593F8" stroke-linecap="round" stroke-dasharray="0.5 2"/>
<path opacity="0.7" d="M51.5331 48.791H26.2452C25.2689 48.791 24.4775 49.5824 24.4775 50.5587C24.4775 51.5349 25.2689 52.3263 26.2452 52.3263H51.5331C52.5093 52.3263 53.3007 51.5349 53.3007 50.5587C53.3007 49.5824 52.5093 48.791 51.5331 48.791Z" fill="#E7EFFF"/>
<path opacity="0.7" d="M43.9911 54.5938H33.7872C32.8109 54.5938 32.0195 55.3852 32.0195 56.3614C32.0195 57.3376 32.8109 58.1291 33.7872 58.1291H43.9911C44.9673 58.1291 45.7587 57.3376 45.7587 56.3614C45.7587 55.3852 44.9673 54.5938 43.9911 54.5938Z" fill="#E7EFFF"/>
</g>
</g>
<g style="mix-blend-mode:multiply">
<path d="M80 64.4443H0V79.9999H80V64.4443Z" fill="url(#paint3_linear_40000299_21248)"/>
</g>
<path d="M45 82.5556C45 62.9188 60.9188 47 80.5556 47V82.5556H45Z" fill="#3B7AF1"/>
<path fill-rule="evenodd" clip-rule="evenodd" d="M62.1189 64.1806V72.0094H59.6482C58.7379 72.0094 58 71.2715 58 70.3613V65.8288C58 64.9185 58.7379 64.1806 59.6482 64.1806H62.1189ZM66.484 58C67.0425 58 67.5018 58.416 67.557 58.9493L67.5626 59.0574V63.2357H73.1123C73.8078 63.1705 74.4144 63.675 74.4763 64.3431L74.4815 64.4559V66.0418C74.4815 67.6394 74.1706 69.2223 73.5654 70.7056C73.0647 71.9327 71.8669 72.8914 70.5412 72.8308L70.3816 72.8186L62.9444 72.0268V64.1307L63.2184 63.6938C63.7623 62.8014 64.9661 60.6941 65.4359 58.8085C65.5541 58.3343 65.986 58 66.484 58Z" fill="#FEFEFF"/>
</g>
<mask id="mask2_40000299_21248" style="mask-type:alpha" maskUnits="userSpaceOnUse" x="30" y="20" width="20" height="20">
<path fill-rule="evenodd" clip-rule="evenodd" d="M40 20C45.5228 20 50 24.4772 50 30C50 35.5228 45.5228 40 40 40C34.4772 40 30 35.5228 30 30C30 24.4772 34.4772 20 40 20ZM40 34C39.1716 34 38.5 34.6716 38.5 35.5C38.5 36.3284 39.1716 37 40 37C40.8284 37 41.5 36.3284 41.5 35.5C41.5 34.6716 40.8284 34 40 34ZM40.7162 23.0631C38.2522 22.6301 36.0382 24.4881 36.0002 26.9371C36.0002 26.9604 36.0122 26.9837 36.0306 26.9973L36.0622 27.0091H37.9312C37.9589 27.0113 37.9839 26.9911 37.9946 26.9648L38.0002 26.9371L38.0042 26.8531C38.0892 25.6841 39.1652 24.8211 40.3712 25.0321C41.1642 25.1711 41.8292 25.8371 41.9672 26.6291C42.1306 27.5612 41.6553 28.4363 40.8472 28.8129L40.5262 28.9461C39.6674 29.337 39.0776 30.1375 39.0073 31.0699L39.0002 31.2581V32.3371C39.0002 32.4091 39.0469 32.4708 39.1122 32.4926L39.1642 32.5011H40.8352C40.908 32.5011 40.9693 32.4537 40.9909 32.3887L40.9992 32.3371V31.2581L41.0062 31.1781C41.0392 30.9941 41.1802 30.8301 41.4012 30.7471C43.1912 30.0791 44.2792 28.2311 43.9372 26.2831C43.6542 24.6611 42.3382 23.3471 40.7162 23.0631Z" fill="#24262C"/>
</mask>
<g mask="url(#mask2_40000299_21248)">
<path d="M-55.7937 110C-69.1271 110 -80.8604 105.733 -90.9937 97.2C-100.594 88.1333 -105.394 74 -105.394 54.8C-105.394 35.6 -100.594 21.4667 -90.9937 12.4C-80.8604 3.33332 -69.1271 -1.20001 -55.7937 -1.20001H158.606C171.94 -1.20001 183.406 3.33332 193.006 12.4C203.14 20.9333 208.206 34.8 208.206 54C208.206 73.2 203.14 87.3333 193.006 96.4C183.406 105.467 171.94 110 158.606 110H-55.7937Z" fill="#2067DA"/>
</g>
</g>
<defs>
<filter id="filter0_d_40000299_21248" x="13.5557" y="8.88867" width="50.667" height="92.667" filterUnits="userSpaceOnUse" color-interpolation-filters="sRGB">
<feFlood flood-opacity="0" result="BackgroundImageFix"/>
<feColorMatrix in="SourceAlpha" type="matrix" values="0 0 0 0 0 0 0 0 0 0 0 0 0 0 0 0 0 0 127 0" result="hardAlpha"/>
<feOffset dy="4"/>
<feGaussianBlur stdDeviation="1"/>
<feComposite in2="hardAlpha" operator="out"/>
<feColorMatrix type="matrix" values="0 0 0 0 0.470588 0 0 0 0 0.635294 0 0 0 0 1 0 0 0 0.56 0"/>
<feBlend mode="normal" in2="BackgroundImageFix" result="effect1_dropShadow_40000299_21248"/>
<feBlend mode="normal" in="SourceGraphic" in2="effect1_dropShadow_40000299_21248" result="shape"/>
</filter>
<linearGradient id="paint0_linear_40000299_21248" x1="40" y1="0" x2="40" y2="79.9424" gradientUnits="userSpaceOnUse">
<stop stop-color="#EFF4FF"/>
<stop offset="1" stop-color="#CADAFC"/>
</linearGradient>
<linearGradient id="paint1_linear_40000299_21248" x1="0.827361" y1="66.8093" x2="67.301" y2="91.9534" gradientUnits="userSpaceOnUse">
<stop stop-color="#3777F0"/>
<stop offset="1" stop-color="#7AA4FF"/>
</linearGradient>
<linearGradient id="paint2_linear_40000299_21248" x1="16.0383" y1="11.6706" x2="40.7083" y2="33.6905" gradientUnits="userSpaceOnUse">
<stop stop-color="#3777F0"/>
<stop offset="1" stop-color="#7AA4FF"/>
</linearGradient>
<linearGradient id="paint3_linear_40000299_21248" x1="40" y1="64.4443" x2="40" y2="79.9999" gradientUnits="userSpaceOnUse">
<stop stop-color="#E1EAFE" stop-opacity="0"/>
<stop offset="1" stop-color="#B2CAFF"/>
</linearGradient>
<clipPath id="clip0_40000299_21248">
<rect width="80" height="80" fill="white"/>
</clipPath>
</defs>
</svg>
